<svg width="100" height="100" viewBox="0 0 100 100" fill="none" xmlns="http://www.w3.org/2000/svg">
<path d="M68.2347 33.3783C74.1271 42.0954 77.0371 51.928 75.9493 63.2475C75.9447 63.2954 75.9199 63.3394 75.8808 63.3683C71.4186 66.6651 67.0954 68.6659 62.8328 69.9927C62.7996 70.0028 62.7641 70.0023 62.7312 69.9911C62.6984 69.9799 62.6698 69.9587 62.6495 69.9304C61.6647 68.5517 60.77 67.0982 59.9861 65.5718C59.9411 65.4819 59.9821 65.3737 60.0748 65.3382C61.4958 64.7995 62.8471 64.1538 64.1469 63.3893C64.2493 63.3289 64.2558 63.1813 64.1613 63.1104C63.8854 62.9043 63.6121 62.6878 63.3506 62.4712C63.3017 62.4312 63.2358 62.4233 63.1804 62.4503C54.7419 66.3711 45.498 66.3711 36.9598 62.4503C36.9044 62.4253 36.8385 62.4338 36.7909 62.4732C36.53 62.6898 36.2561 62.9043 35.9828 63.1104C35.8883 63.1813 35.8961 63.3289 35.9991 63.3893C37.2989 64.1393 38.6502 64.7995 40.0693 65.3408C40.1613 65.3763 40.205 65.4819 40.1593 65.5718C39.3924 67.1001 38.4976 68.5536 37.4946 69.9323C37.4509 69.9881 37.3791 70.0137 37.3113 69.9927C33.0689 68.6659 28.7457 66.6651 24.2835 63.3683C24.2463 63.3394 24.2196 63.2935 24.2157 63.2456C23.3065 53.4543 25.1594 43.5403 31.9231 33.3763C31.9394 33.3494 31.9641 33.3284 31.9928 33.316C35.3209 31.7791 38.8863 30.6485 42.6128 30.0028C42.6806 29.9923 42.7485 30.0238 42.7837 30.0841C43.2441 30.9044 43.7704 31.9563 44.1265 32.8159C48.0546 32.2122 52.0439 32.2122 56.0541 32.8159C56.4102 31.9747 56.9182 30.9044 57.3767 30.0841C57.393 30.0542 57.4184 30.0302 57.449 30.0156C57.4797 30.001 57.5142 29.9965 57.5476 30.0028C61.2761 30.6504 64.8415 31.7811 68.1669 33.316C68.1963 33.3284 68.2204 33.3494 68.2347 33.3783ZM46.1235 51.9949C46.1646 49.1004 44.0672 46.7052 41.4343 46.7052C38.823 46.7052 36.7459 49.0794 36.7459 51.9949C36.7459 54.9098 38.8641 57.2839 41.4343 57.2839C44.0463 57.2839 46.1235 54.9098 46.1235 51.9949ZM63.4595 51.9949C63.5006 49.1004 61.4032 46.7052 58.7711 46.7052C56.1591 46.7052 54.0819 49.0794 54.0819 51.9949C54.0819 54.9098 56.2002 57.2839 58.7711 57.2839C61.4032 57.2839 63.4595 54.9098 63.4595 51.9949Z" fill="#5865F2"/>
</svg>
