<svg width="100" height="100" viewBox="0 0 100 100" fill="none" xmlns="http://www.w3.org/2000/svg">
<path d="M57.608 33.312V45.566L61.6038 48.2624C61.7092 48.2953 61.9375 48.2977 62.0429 48.2624L79.24 35.8367C79.24 34.3661 77.9601 33.312 77.2377 33.312H57.608Z" fill="#0072C6"/>
<path d="M57.6102 48.9415L61.2561 51.5186C61.7698 51.9071 62.3888 51.5186 62.3888 51.5186C61.772 51.9071 79.24 39.968 79.24 39.968V61.5875C79.24 63.941 77.7759 64.928 76.1297 64.928H57.608V48.9415H57.6102Z" fill="#0072C6"/>
<path d="M38.5581 43.296C37.259 43.296 36.2239 43.908 35.4596 45.1297C34.6953 46.3514 34.312 47.9688 34.312 49.9819C34.312 52.025 34.6953 53.6401 35.4596 54.8272C36.2239 56.0167 37.2269 56.608 38.4662 56.608C39.7447 56.608 40.7591 56.0305 41.5074 54.8756C42.2556 53.7206 42.632 52.117 42.632 50.067C42.632 47.9297 42.2694 46.2662 41.5418 45.0768C40.8142 43.8896 39.8204 43.296 38.5581 43.296Z" fill="#0072C6"/>
<path fill-rule="evenodd" clip-rule="evenodd" d="M21 72.5918V26.7497L55.944 20V79.904L21 72.5918ZM38.605 60.332C40.9812 60.332 42.9065 59.36 44.3832 57.4206C45.8598 55.4812 46.5993 52.9253 46.597 49.7551C46.597 46.6705 45.8846 44.1866 44.4598 42.3012C43.0373 40.4157 41.1706 39.4753 38.8643 39.4753C36.4227 39.4753 34.4613 40.4607 32.9802 42.4294C31.499 44.3981 30.7595 46.9765 30.7595 50.1646C30.7595 53.184 31.49 55.6319 32.9463 57.5128C34.405 59.3915 36.2897 60.332 38.605 60.332Z" fill="#0072C6"/>
</svg>
